<svg viewBox="0 0 566.93 566.93" xmlns="http://www.w3.org/2000/svg"><g fill="none" stroke="#000" stroke-miterlimit="10" stroke-width="1.5"><path d="m311.24 501.4-2.67-2.91"/><path d="m275.76 501.4 2.62-2.91"/><path d="m324.12 506.26-.05-.09a4 4 0 0 0 -2.87 0"/><path d="m265.79 506.17a4 4 0 0 0 -2.87 0v.09"/><path d="m324.17 506.41-.05-.15"/><path d="m324.12 506.26v-1.07"/><path d="m262.88 506.26-.05.15"/><path d="m310.75 510.44-6.85-11.08"/><path d="m311.24 510.35-6.85-11.09"/><path d="m275.76 510.35 6.8-11.09"/><path d="m276.24 510.44 6.81-11.08"/><path d="m256.46 507.43 35.09 9.09"/><path d="m256.46 506.36v1.07"/><path d="m295.44 516.52 35.05-9.09"/><path d="m330.49 507.43v-1.07"/><path d="m295.44 515.45v1.07"/><path d="m295.44 516.52h-3.89"/><path d="m291.55 516.52v-1.07"/><path d="m276.24 510.44-.48-.09"/><path d="m283.05 508.69-6.81 1.75"/><path d="m303.9 508.69 6.85 1.75"/><path d="m311.24 510.35-.49.09"/><path d="m308.57 502.08 2.67-.68"/><path d="m278.38 502.08-2.62-.68"/><path d="m296.12 513.8a2.63 2.63 0 0 0 1.36-.29v-.15a2.8 2.8 0 0 0 -1.65-.34"/><path d="m295.83 513c-1.55 0-3.16 0-4.71 0"/><path d="m291.12 513a4.14 4.14 0 0 0 -1.56.24.49.49 0 0 1 -.1.15l.05.1a2.65 2.65 0 0 0 1.36.29"/><path d="m290.87 513.8c1.73.06 3.53.06 5.25 0"/><path d="m265.89 505.24s0-.11-.05-.14a4 4 0 0 0 -1.75-.25 1.75 1.75 0 0 0 -1.21.34"/><path d="m262.88 505.19a1.69 1.69 0 0 0 0 1.36"/><path d="m262.88 506.55a3.26 3.26 0 0 0 3 0"/><path d="m265.89 506.51a2 2 0 0 1 0-1.27"/><path d="m330.49 505.39-20.47-5.35"/><path d="m330.49 506.36v-.97"/><path d="m295.44 515.45 35.05-9.09"/><path d="m291.55 515.45h3.89"/><path d="m256.46 506.36 35.09 9.09"/><path d="m256.46 505.39v.97"/><path d="m276.97 500.04-20.51 5.35"/><path d="m321.11 506.51a3.3 3.3 0 0 0 3 0"/><path d="m324.12 506.55a2.18 2.18 0 0 0 0-1.36"/><path d="m324.12 505.19-.05-.09a4 4 0 0 0 -1.75-.25 1.76 1.76 0 0 0 -1.21.34v.1"/><path d="m321.11 505.29a2.2 2.2 0 0 1 0 1.22"/><path d="m303.12 441.71c-3.69.82-9.49-.06-9.67-4.76"/><path d="m293.45 436.95v-25.42"/><path d="m293.45 411.53c0-.18.06-.56.1-.73"/><path d="m307.59 403.94c.05 0 .17.05.2.1"/><path d="m303.85 110.35c8.46-2.33 2.74-5.17-2.43-5.88-6-.88-16-1.12-21.39 1.7-4.48 2.89 4.67 4.71 6.66 4.86a49.24 49.24 0 0 0 17.16-.68"/><path d="m283.05 499.36-.49-.1"/><path d="m278.38 505.87.05.15"/><path d="m308.57 506.02v-.15"/><path d="m304.39 499.26-.49.1"/><path d="m303.9 508.69v-9.33"/><path d="m283.05 508.69a49.51 49.51 0 0 0 20.85 0"/><path d="m283.05 508.69v-9.33"/><path d="m304.14 110.45c5.22-1.38 6.34-3.75.44-5.44a47.06 47.06 0 0 0 -13.12-1.22 45.6 45.6 0 0 0 -8.32 1c-1.41.41-5.93 1.53-4.42 3.65 2.1 1.94 5.35 2.26 8.07 2.72a52.12 52.12 0 0 0 17.35-.73"/><path d="m308.57 433.11c-.1 2.43.46 5.56-1.66 7.29-3.83 2.6-13.14 2.73-13.46-3.35"/><path d="m308.57 407.69v25.42"/><path d="m293.45 411.62c.31-5.23 7.28-5.83 11.23-7 4.17-1.19 3.9-1.17 3.89 3.07"/><path d="m293.45 437.05v-25.43"/><path d="m321.2 506.36a4 4 0 0 1 2.87 0l.05.1"/><path d="m262.88 506.46a1.7 1.7 0 0 1 1.21-.34 3.63 3.63 0 0 1 1.7.24"/><path d="m324.12 506.46v.05"/><path d="m324.12 506.26v.2"/><path d="m262.83 506.51.05-.05"/><path d="m330.49 507.62-35.05 9.09"/><path d="m330.49 507.43v.19"/><path d="m291.55 516.71-35.09-9.09"/><path d="m256.46 507.43v.19"/><path d="m324.12 506.26.05.15"/><path d="m321.2 506.17a4 4 0 0 1 2.87 0l.05.09"/><path d="m291.55 516.52-35.09-9.09"/><path d="m330.49 507.43-35.05 9.09"/><path d="m262.88 506.26v-.09a4 4 0 0 1 2.87 0"/><path d="m262.83 506.41.05-.15"/><path d="m295.44 516.52h-3.89"/><path d="m295.44 516.52v.19"/><path d="m295.44 516.71h-3.89"/><path d="m291.55 516.52v.19"/><path d="m303.46 410.31c0 .07-.19.13-.24.2"/><path d="m303.17 410.17.2.09"/><path d="m303.37 410.26.58.15"/><path d="m303.66 408.9.29.05"/><path d="m303.95 408.95-.73.78"/><path d="m304.05 409.05-.05-.05h-.05v-.05"/><path d="m304.05 410.31v-1.26"/><path d="m303.95 410.41.05-.05v-.05h.05"/><path d="m303.17 410.02.78.39"/><path d="m304 410.65h-.39"/><path d="m304.34 410.75-.34-.1"/><path d="m303.32 410.75.29-.1"/><path d="m307.3 413.08h-.14"/><path d="m306.87 414.73c.17 0 .21-.22.19-.38l-.1-.1"/><path d="m306.23 414.73h.05"/><path d="m306.23 414.64h.05"/><path d="m306.09 415.22v.05"/><path d="m306.23 415s-.11 0-.14 0"/><path d="m306.28 414.93v.05h-.05"/><path d="m306.28 414.73v.2"/><path d="m306.43 414.69-.15.04"/><path d="m306.43 415v-.34"/><path d="m306.38 415.17.05-.05v-.12"/><path d="m306.09 415.27.29-.1"/><path d="m306.09 415.03v.24"/><path d="m305.99 415.03h.05"/><path d="m306.09 414.2v.05"/><path d="m306.28 414.44v.2"/><path d="m306.23 414.44h.05"/><path d="m306.09 414.44h.14"/><path d="m306.09 414.25v.19"/><path d="m306.38 414.15a1.42 1.42 0 0 1 -.29.1"/><path d="m306.43 414.25v-.1h-.05"/><path d="m306.43 414.59v-.34"/><path d="m306.28 414.64.15-.05"/><path d="m305.89 415v-.2"/><path d="m305.89 415.07v-.04"/><path d="m306.04 415.03-.15.05"/><path d="m306.04 415.27v-.24"/><path d="m305.8 415.32a.69.69 0 0 0 .24-.05"/><path d="m305.7 415.22v.1h.1"/><path d="m305.84 414.83h.05"/><path d="m305.89 414.83-.19.05"/><path d="m305.65 414.88h.05"/><path d="m305.7 414.88v.34"/><path d="m305.31 414.39v.05"/><path d="m305.36 414.88.05-.05h.04"/><path d="m305.12 414.93.24-.05"/><path d="m305.12 414.83v.1"/><path d="m305.31 414.83h-.19"/><path d="m305.31 414.78v.05"/><path d="m305.31 414.74v.04"/><path d="m305.31 414.44v.29"/><path d="m305.46 414.39-.15.05"/><path d="m305.46 414.73v-.34"/><path d="m305.46 414.83v-.1"/><path d="m304.82 414.73h.05"/><path d="m304.92 414.98h.05v-.05"/><path d="m304.63 415.03.29-.05"/><path d="m304.63 414.98v.05"/><path d="m304.82 414.93-.19.05"/><path d="m304.87 414.93h-.05"/><path d="m304.87 414.88v.05"/><path d="m304.87 414.78v.1"/><path d="m304.68 414.83.19-.05"/><path d="m304.68 414.78v.05"/><path d="m304.87 414.73-.19.05"/><path d="m304.87 414.64v.09"/><path d="m304.82 414.64h.05"/><path d="m304.63 414.69.19-.05"/><path d="m304.92 414.54-.29.05"/><path d="m304.97 414.54h-.05"/><path d="m305.02 414.64v-.05l-.05-.05"/><path d="m305.02 414.83v-.19"/><path d="m304.97 414.93.05-.05v-.05"/><path d="m304.63 414.59v.1"/><path d="m304.29 415.03.05.05"/><path d="m304.29 415.03v-.25"/><path d="m304.24 415.08.05-.05"/><path d="m304.43 414.64h.05"/><path d="m304.14 415.17.34-.09"/><path d="m304.09 415.17h.05"/><path d="m304.09 415.08v.09"/><path d="m304.09 414.88v.2"/><path d="m304.09 414.78v.1"/><path d="m304.14 414.73-.05.05"/><path d="m304.48 414.64-.34.09"/><path d="m304.48 415.08v-.44"/><path d="m304.24 414.78v.05"/><path d="m304.24 414.83v.2"/><path d="m304.24 415.03v.04"/><path d="m304.24 415.08h.1"/><path d="m304.34 415.08v-.35"/><path d="m304.34 414.73-.1.05"/><path d="m303.9 415.17h.05"/><path d="m303.71 414.98h.04"/><path d="m303.51 415.12h.05"/><path d="m303.51 414.93.05.05"/><path d="m303.51 414.88h.05"/><path d="m303.61 415.32.34-.1"/><path d="m303.56 415.32h.05"/><path d="m303.51 415.22v.05l.05.05"/><path d="m303.56 415.12v.05h-.05v.05"/><path d="m303.66 415-.1.09"/><path d="m303.71 415.03h-.05"/><path d="m303.75 414.98-.04.05"/><path d="m303.8 414.93v.05h-.05"/><path d="m303.75 414.93h.05"/><path d="m303.56 414.98.19-.05"/><path d="m303.56 414.88v.1"/><path d="m303.85 414.83-.29.05"/><path d="m303.9 414.83h-.05"/><path d="m303.95 414.88-.05-.05"/><path d="m303.9 415.03v-.05l.05-.05v-.05"/><path d="m303.8 415.07.05-.04h.05"/><path d="m303.75 415.12.05-.04"/><path d="m303.71 415.12h.04"/><path d="m303.66 415.17h.05v-.05"/><path d="m303.71 415.22h-.05v-.05"/><path d="m303.95 415.17-.24.05"/><path d="m303.95 415.22v-.05"/><path d="m303.32 415.08h-.05v.2"/><path d="m303.22 415.32v-.05h.1v-.19h-.05"/><path d="m302.64 415.46h.04"/><path d="m302.64 415.56h.04"/><path d="m302.64 415.08.04.04"/><path d="m302.64 415.17h.04"/><path d="m302.93 415.51.1-.09"/><path d="m302.68 415.56.25-.05"/><path d="m302.68 415.46v.1"/><path d="m302.88 415.42-.2.04"/><path d="m302.88 415.37v.05"/><path d="m302.88 415.17v.2"/><path d="m302.88 415.12v.05"/><path d="m302.68 415.17.2-.05"/><path d="m302.68 415.12v.05"/><path d="m302.93 415.03-.25.09"/><path d="m303.02 415.07-.04-.04h-.05"/><path d="m303.02 415.12v-.05"/><path d="m303.03 415.37v-.25"/><path d="m303.03 415.42v-.05"/><path d="m302.34 415.42v.04"/><path d="m302.49 415.12.05.05"/><path d="m302.34 415.17h.05"/><path d="m302.25 415.66v-.1"/><path d="m302.1 415.71.15-.05"/><path d="m302.1 415.61v.1"/><path d="m302.05 415.61h.05"/><path d="m302.05 415.51v.1"/><path d="m302.1 415.51h-.05"/><path d="m302.1 415.27v.24"/><path d="m302.25 415.22-.15.05"/><path d="m302.25 415.46v-.24"/><path d="m302.34 415.46h-.09"/><path d="m302.39 415.42-.05.04"/><path d="m302.39 415.17v.25"/><path d="m302.54 415.17h-.15"/><path d="m302.54 415.37v-.2"/><path d="m302.49 415.46v-.04l.05-.05"/><path d="m302.44 415.51.05-.05"/><path d="m302.25 415.56.19-.05"/><path d="m301.42 416.14h.05a.38.38 0 0 1 .15-.09.28.28 0 0 1 0-.2s-.06-.11 0-.14h-.05"/><path d="m300.84 416.87a.38.38 0 0 0 .24.44"/><path d="m307.16 413.08-5.93 1.56"/><path d="m300.84 415.27v1.6"/><path d="m301.23 414.64c-.08 0-.17.11-.25.14a.78.78 0 0 0 -.14.49"/><path d="m306.19 414.98h.04v-.05"/><path d="m306.09 415.03.09-.05"/><path d="m306.09 415.22v-.19"/><path d="m306.23 414.73.2-.04"/><path d="m306.23 414.93v-.2"/><path d="m305.31 414.39h.15"/><path d="m305.31 414.73v-.34"/><path d="m305.26 414.78h.05v-.04"/><path d="m305.12 414.83.14-.05"/><path d="m305.12 414.93v-.1"/><path d="m304.09 415.17-.04-.05"/><path d="m304.14 414.73.29-.09"/><path d="m304.05 414.78.04-.04h.05"/><path d="m304.05 414.88v-.1"/><path d="m304.05 415.08v-.2"/><path d="m304.05 415.12v-.04"/><path d="m303.17 415.32v-.24h.15"/><path d="m302.34 415.17.15-.05"/><path d="m302.34 415.42v-.25"/><path d="m302.3 415.46.04-.04"/><path d="m302.25 415.46h.05"/><path d="m302.1 415.27.15-.05"/><path d="m302.1 415.51v-.24"/><path d="m302.05 415.51h.05"/><path d="m302.05 415.61v-.1"/><path d="m302.1 415.71v-.1"/><path d="m305.94 414.25-.05.05h-.05"/><path d="m305.8 414.3h-.05"/><path d="m305.75 414.3v.05h-.05"/><path d="m305.7 414.35v.04"/><path d="m305.7 414.39h-.05"/><path d="m305.65 414.39v.05"/><path d="m305.65 414.44v.34"/><path d="m305.65 414.78h.05"/><path d="m306.77 414.54v.1l.1.09a.25.25 0 0 0 .19-.09.35.35 0 0 1 .05-.2l-.05-.05v-.09h-.19a.5.5 0 0 1 -.1.14z"/><path d="m307.59 413.52c0-.15-.11-.28-.19-.39a.27.27 0 0 1 -.15-.05v.05"/><path d="m307.59 415.12v-1.6"/><path d="m307.21 415.76s.11 0 .14-.05a1.09 1.09 0 0 0 .24-.59"/><path d="m301.23 417.31 5.98-1.55"/><path d="m300.84 416.87c.07.19.06.31.24.44h.15"/><path d="m300.84 415.27v1.6"/><path d="m301.23 414.64c-.26.13-.31.38-.39.63"/><path d="m307.21 413.13-5.98 1.51"/><path d="m301.32 416a.27.27 0 0 1 .05.15s.11.06.15 0a.38.38 0 0 0 .14-.38l-.09-.1h-.05a.49.49 0 0 1 -.15.1.27.27 0 0 1 -.05.19"/><path d="m302.64 415.08.29-.05"/><path d="m302.64 415.17v-.09"/><path d="m302.88 415.17v-.05h-.05"/><path d="m302.88 415.37v-.2"/><path d="m302.83 415.42h.05v-.05"/><path d="m302.64 415.46.19-.04"/><path d="m302.64 415.56v-.1"/><path d="m303.56 415.32-.05-.05"/><path d="m303.71 415.22.19-.05"/><path d="m303.8 414.78h.05"/><path d="m303.51 414.88.29-.1"/><path d="m303.51 414.93v-.05"/><path d="m303.71 414.98.04-.05"/><path d="m303.66 415.03.05-.05"/><path d="m303.61 415.03h.05"/><path d="m303.51 415.12.1-.09"/><path d="m303.51 415.22v-.1"/><path d="m303.51 415.27v-.05"/><path d="m304.87 414.54h.05"/><path d="m304.63 414.59.24-.05"/><path d="m304.63 414.69v-.1"/><path d="m304.82 414.73v-.09"/><path d="m304.68 414.78.14-.05"/><path d="m304.68 414.83v-.05"/><path d="m304.82 414.88v-.05"/><path d="m304.77 414.93h.05v-.05"/><path d="m304.63 414.98.14-.05"/><path d="m304.63 415.03v-.05"/><path d="m306.23 414.64v-.2"/><path d="m306.33 414.15h.05"/><path d="m306.09 414.2.24-.05"/><path d="m306.09 414.44v-.24"/><path d="m305.65 414.88.19-.05"/><path d="m305.65 415.22v-.34"/><path d="m305.7 415.32-.05-.05v-.05"/><path d="m305.89 415.08.1-.05"/><path d="m305.7 414.44v.34h.14.05v-.14"/><path d="m305.7 414.39v.05"/><path d="m305.7 414.35v.04"/><path d="m305.75 414.35h-.05"/><path d="m305.8 414.3-.05.05"/><path d="m306 414.49v-.24h-.1v.05h-.14"/><path d="m305.89 414.54v-.05h.11"/><path d="m293.6 437.05v-.1"/><path d="m304.73 409.53c0 .63-.35 1.57-1.07 1.56"/><path d="m304.34 408.61h.05a1.13 1.13 0 0 0 .24.29 2 2 0 0 1 .1.63"/><path d="m293.6 436.95v-25.42"/><path d="m293.6 411.53a5.32 5.32 0 0 1 3.4-4.53"/><path d="m306.62 404.09a6 6 0 0 1 .73 0"/><path d="m305.07 409.63a1.45 1.45 0 0 1 -1.12 1.56l-.34-.1a1.44 1.44 0 0 1 .92-2.48 1 1 0 0 1 .54 1"/><path d="m293.6 411.62c.2-4.29 5.3-5.4 8.7-6.27 1.08-.27 2.36-.62 3.45-.87a4.56 4.56 0 0 1 2.38-.34c.75 1 .33 2.45.44 3.6"/><path d="m308.57 407.74v25.42"/><path d="m308.57 433.16c-.07 2.53.46 6-2.19 7.43-4 2.14-12.27 2.33-12.78-3.54"/><path d="m293.6 437.05v-25.43"/><path d="m321.2 506.65v-.78"/><path d="m265.79 505.87v.78"/><path d="m308.57 407.1v-299.42"/><path d="m308.57 505.87v-72.08"/><path d="m278.38 107.68v398.19"/><path d="m307.35 413.13-.05-.05"/><path d="m306.43 414.15h-.05"/><path d="m305.7 415.32h.05"/><path d="m304.97 414.54h-.05"/><path d="m304.09 415.17h.05"/><path d="m303.9 414.83-.05-.05"/><path d="m303.56 415.32h.05"/><path d="m303.37 415.08h-.05"/><path d="m303.17 415.32h.05"/><path d="m302.98 415.03h-.05"/><path d="m301.08 417.31h.05"/><path d="m305.89 414.49h.05"/><path d="m305.8 414.3h-.05"/><path d="m305.84 414.3h-.04"/><path d="m305.89 414.3h-.05"/><path d="m305.89 414.3v-.05"/><path d="m305.99 414.25h-.05"/><path d="m306.04 414.25h-.05"/><path d="m306.04 414.25h-.05"/><path d="m305.84 414.73h.05"/><path d="m305.7 414.78h.05"/><path d="m305.65 414.78h.05"/><path d="m305.65 414.49h.05"/><path d="m305.65 414.44h.05"/><path d="m305.7 414.39h-.05"/><path d="m293.6 437.05v.09"/><path d="m307.79 404h-.44"/><path d="m188.3 505.87v-398.68"/><path d="m278.77 77.56h29.36"/></g><text font-family="ArialMT, Arial" font-size="29" transform="translate(256.46 57.27)">Ø220</text><text font-family="ArialMT, Arial" font-size="29" transform="translate(103.2 314.27)">3000</text></svg>