<svg id="Capa_1" data-name="Capa 1" xmlns="http://www.w3.org/2000/svg" viewBox="0 0 566.93 566.93"><defs><style>.cls-1{fill:none;stroke:#000;stroke-miterlimit:10;stroke-width:1.5px;}.cls-2{font-size:29px;font-family:ArialMT, Arial;}</style></defs><line class="cls-1" x1="311.24" y1="501.4" x2="308.57" y2="498.49"/><line class="cls-1" x1="275.76" y1="501.4" x2="278.38" y2="498.49"/><path class="cls-1" d="M324.12,506.26l-.05-.09a4,4,0,0,0-2.87,0"/><path class="cls-1" d="M265.79,506.17a4,4,0,0,0-2.87,0l0,.09"/><line class="cls-1" x1="324.17" y1="506.41" x2="324.12" y2="506.26"/><line class="cls-1" x1="324.12" y1="506.26" x2="324.12" y2="505.19"/><line class="cls-1" x1="262.88" y1="506.26" x2="262.83" y2="506.41"/><line class="cls-1" x1="310.75" y1="510.44" x2="303.9" y2="499.36"/><line class="cls-1" x1="311.24" y1="510.35" x2="304.39" y2="499.26"/><line class="cls-1" x1="275.76" y1="510.35" x2="282.56" y2="499.26"/><line class="cls-1" x1="276.24" y1="510.44" x2="283.05" y2="499.36"/><line class="cls-1" x1="256.46" y1="507.43" x2="291.55" y2="516.52"/><line class="cls-1" x1="256.46" y1="506.36" x2="256.46" y2="507.43"/><line class="cls-1" x1="295.44" y1="516.52" x2="330.49" y2="507.43"/><line class="cls-1" x1="330.49" y1="507.43" x2="330.49" y2="506.36"/><line class="cls-1" x1="295.44" y1="515.45" x2="295.44" y2="516.52"/><line class="cls-1" x1="295.44" y1="516.52" x2="291.55" y2="516.52"/><line class="cls-1" x1="291.55" y1="516.52" x2="291.55" y2="515.45"/><line class="cls-1" x1="276.24" y1="510.44" x2="275.76" y2="510.35"/><line class="cls-1" x1="283.05" y1="508.69" x2="276.24" y2="510.44"/><line class="cls-1" x1="303.9" y1="508.69" x2="310.75" y2="510.44"/><line class="cls-1" x1="311.24" y1="510.35" x2="310.75" y2="510.44"/><line class="cls-1" x1="308.57" y1="502.08" x2="311.24" y2="501.4"/><line class="cls-1" x1="278.38" y1="502.08" x2="275.76" y2="501.4"/><path class="cls-1" d="M296.12,513.8a2.63,2.63,0,0,0,1.36-.29v-.15a2.8,2.8,0,0,0-1.65-.34"/><path class="cls-1" d="M295.83,513c-1.55,0-3.16,0-4.71,0"/><path class="cls-1" d="M291.12,513a4.14,4.14,0,0,0-1.56.24.49.49,0,0,1-.1.15l.05.1a2.65,2.65,0,0,0,1.36.29"/><path class="cls-1" d="M290.87,513.8c1.73.06,3.53.06,5.25,0"/><path class="cls-1" d="M265.89,505.24s0-.11-.05-.14a4,4,0,0,0-1.75-.25,1.75,1.75,0,0,0-1.21.34"/><path class="cls-1" d="M262.88,505.19a1.69,1.69,0,0,0,0,1.36"/><path class="cls-1" d="M262.88,506.55a3.26,3.26,0,0,0,3,0v0"/><path class="cls-1" d="M265.89,506.51a2,2,0,0,1,0-1.27"/><line class="cls-1" x1="330.49" y1="505.39" x2="310.02" y2="500.04"/><line class="cls-1" x1="330.49" y1="506.36" x2="330.49" y2="505.39"/><line class="cls-1" x1="295.44" y1="515.45" x2="330.49" y2="506.36"/><line class="cls-1" x1="291.55" y1="515.45" x2="295.44" y2="515.45"/><line class="cls-1" x1="256.46" y1="506.36" x2="291.55" y2="515.45"/><line class="cls-1" x1="256.46" y1="505.39" x2="256.46" y2="506.36"/><line class="cls-1" x1="276.97" y1="500.04" x2="256.46" y2="505.39"/><path class="cls-1" d="M321.11,506.51v0a3.3,3.3,0,0,0,3,0"/><path class="cls-1" d="M324.12,506.55a2.18,2.18,0,0,0,0-1.36"/><path class="cls-1" d="M324.12,505.19l-.05-.09a4,4,0,0,0-1.75-.25,1.76,1.76,0,0,0-1.21.34v.1"/><path class="cls-1" d="M321.11,505.29a2.2,2.2,0,0,1,0,1.22"/><path class="cls-1" d="M303.12,441.71c-3.69.82-9.49-.06-9.67-4.76"/><line class="cls-1" x1="293.45" y1="436.95" x2="293.45" y2="411.53"/><path class="cls-1" d="M293.45,411.53c0-.18.06-.56.1-.73"/><path class="cls-1" d="M307.59,403.94c.05,0,.17.05.2.1"/><path class="cls-1" d="M303.85,110.35c8.46-2.33,2.74-5.17-2.43-5.88-6-.88-16-1.12-21.39,1.7-4.48,2.89,4.67,4.71,6.66,4.86a49.24,49.24,0,0,0,17.16-.68"/><path class="cls-1" d="M283.05,499.36l-.49-.1"/><line class="cls-1" x1="278.38" y1="505.87" x2="278.43" y2="506.02"/><line class="cls-1" x1="308.57" y1="506.02" x2="308.57" y2="505.87"/><path class="cls-1" d="M304.39,499.26l-.49.1"/><line class="cls-1" x1="303.9" y1="508.69" x2="303.9" y2="499.36"/><path class="cls-1" d="M283.05,508.69a49.51,49.51,0,0,0,20.85,0"/><line class="cls-1" x1="283.05" y1="508.69" x2="283.05" y2="499.36"/><path class="cls-1" d="M304.14,110.45c5.22-1.38,6.34-3.75.44-5.44a47.06,47.06,0,0,0-13.12-1.22,45.6,45.6,0,0,0-8.32,1c-1.41.41-5.93,1.53-4.42,3.65,2.1,1.94,5.35,2.26,8.07,2.72a52.12,52.12,0,0,0,17.35-.73"/><path class="cls-1" d="M308.57,433.11c-.1,2.43.46,5.56-1.66,7.29-3.83,2.6-13.14,2.73-13.46-3.35"/><line class="cls-1" x1="308.57" y1="407.69" x2="308.57" y2="433.11"/><path class="cls-1" d="M293.45,411.62c.31-5.23,7.28-5.83,11.23-7,4.17-1.19,3.9-1.17,3.89,3.07"/><line class="cls-1" x1="293.45" y1="437.05" x2="293.45" y2="411.62"/><path class="cls-1" d="M321.2,506.36a4,4,0,0,1,2.87,0l.05.1"/><path class="cls-1" d="M262.88,506.46a1.7,1.7,0,0,1,1.21-.34,3.63,3.63,0,0,1,1.7.24"/><line class="cls-1" x1="324.12" y1="506.46" x2="324.12" y2="506.51"/><line class="cls-1" x1="324.12" y1="506.26" x2="324.12" y2="506.46"/><line class="cls-1" x1="262.83" y1="506.51" x2="262.88" y2="506.46"/><line class="cls-1" x1="330.49" y1="507.62" x2="295.44" y2="516.71"/><line class="cls-1" x1="330.49" y1="507.43" x2="330.49" y2="507.62"/><line class="cls-1" x1="291.55" y1="516.71" x2="256.46" y2="507.62"/><line class="cls-1" x1="256.46" y1="507.43" x2="256.46" y2="507.62"/><line class="cls-1" x1="324.12" y1="506.26" x2="324.17" y2="506.41"/><path class="cls-1" d="M321.2,506.17a4,4,0,0,1,2.87,0l.05.09"/><line class="cls-1" x1="291.55" y1="516.52" x2="256.46" y2="507.43"/><line class="cls-1" x1="330.49" y1="507.43" x2="295.44" y2="516.52"/><path class="cls-1" d="M262.88,506.26l0-.09a4,4,0,0,1,2.87,0"/><line class="cls-1" x1="262.83" y1="506.41" x2="262.88" y2="506.26"/><line class="cls-1" x1="295.44" y1="516.52" x2="291.55" y2="516.52"/><line class="cls-1" x1="295.44" y1="516.52" x2="295.44" y2="516.71"/><line class="cls-1" x1="295.44" y1="516.71" x2="291.55" y2="516.71"/><line class="cls-1" x1="291.55" y1="516.52" x2="291.55" y2="516.71"/><path class="cls-1" d="M303.46,410.31c0,.07-.19.13-.24.2"/><line class="cls-1" x1="303.17" y1="410.17" x2="303.37" y2="410.26"/><line class="cls-1" x1="303.37" y1="410.26" x2="303.95" y2="410.41"/><line class="cls-1" x1="303.66" y1="408.9" x2="303.95" y2="408.95"/><line class="cls-1" x1="303.95" y1="408.95" x2="303.22" y2="409.73"/><polyline class="cls-1" points="304.05 409.05 304 409 303.95 409 303.95 408.95 303.95 408.95"/><line class="cls-1" x1="304.05" y1="410.31" x2="304.05" y2="409.05"/><polyline class="cls-1" points="303.95 410.41 304 410.36 304 410.31 304.05 410.31"/><line class="cls-1" x1="303.17" y1="410.02" x2="303.95" y2="410.41"/><path class="cls-1" d="M304,410.65h-.39"/><line class="cls-1" x1="304.34" y1="410.75" x2="304" y2="410.65"/><line class="cls-1" x1="303.32" y1="410.75" x2="303.61" y2="410.65"/><path class="cls-1" d="M307.3,413.08h-.14"/><path class="cls-1" d="M306.87,414.73c.17,0,.21-.22.19-.38l-.1-.1"/><line class="cls-1" x1="306.23" y1="414.73" x2="306.28" y2="414.73"/><line class="cls-1" x1="306.23" y1="414.64" x2="306.28" y2="414.64"/><line class="cls-1" x1="306.09" y1="415.22" x2="306.09" y2="415.27"/><path class="cls-1" d="M306.23,415s-.11,0-.14,0"/><polyline class="cls-1" points="306.28 414.93 306.28 414.98 306.23 414.98 306.23 414.98"/><line class="cls-1" x1="306.28" y1="414.73" x2="306.28" y2="414.93"/><line class="cls-1" x1="306.43" y1="414.69" x2="306.28" y2="414.73"/><path class="cls-1" d="M306.43,415v-.34"/><path class="cls-1" d="M306.38,415.17l.05-.05V415"/><line class="cls-1" x1="306.09" y1="415.27" x2="306.38" y2="415.17"/><line class="cls-1" x1="306.09" y1="415.03" x2="306.09" y2="415.27"/><line class="cls-1" x1="305.99" y1="415.03" x2="306.04" y2="415.03"/><line class="cls-1" x1="306.09" y1="414.2" x2="306.09" y2="414.25"/><path class="cls-1" d="M306.28,414.44v.2"/><line class="cls-1" x1="306.23" y1="414.44" x2="306.28" y2="414.44"/><line class="cls-1" x1="306.09" y1="414.44" x2="306.23" y2="414.44"/><line class="cls-1" x1="306.09" y1="414.25" x2="306.09" y2="414.44"/><path class="cls-1" d="M306.38,414.15a1.42,1.42,0,0,1-.29.1"/><path class="cls-1" d="M306.43,414.25v-.1h-.05"/><line class="cls-1" x1="306.43" y1="414.59" x2="306.43" y2="414.25"/><line class="cls-1" x1="306.28" y1="414.64" x2="306.43" y2="414.59"/><path class="cls-1" d="M305.89,415v-.2"/><polyline class="cls-1" points="305.89 415.07 305.89 415.03 305.89 415.03"/><line class="cls-1" x1="306.04" y1="415.03" x2="305.89" y2="415.08"/><line class="cls-1" x1="306.04" y1="415.27" x2="306.04" y2="415.03"/><path class="cls-1" d="M305.8,415.32a.69.69,0,0,0,.24-.05"/><path class="cls-1" d="M305.7,415.22v.1h.1"/><line class="cls-1" x1="305.84" y1="414.83" x2="305.89" y2="414.83"/><line class="cls-1" x1="305.89" y1="414.83" x2="305.7" y2="414.88"/><line class="cls-1" x1="305.65" y1="414.88" x2="305.7" y2="414.88"/><line class="cls-1" x1="305.7" y1="414.88" x2="305.7" y2="415.22"/><line class="cls-1" x1="305.31" y1="414.39" x2="305.31" y2="414.44"/><polyline class="cls-1" points="305.36 414.88 305.41 414.83 305.45 414.83"/><line class="cls-1" x1="305.12" y1="414.93" x2="305.36" y2="414.88"/><line class="cls-1" x1="305.12" y1="414.83" x2="305.12" y2="414.93"/><line class="cls-1" x1="305.31" y1="414.83" x2="305.12" y2="414.83"/><line class="cls-1" x1="305.31" y1="414.78" x2="305.31" y2="414.83"/><polyline class="cls-1" points="305.31 414.74 305.31 414.78 305.31 414.78"/><line class="cls-1" x1="305.31" y1="414.44" x2="305.31" y2="414.73"/><line class="cls-1" x1="305.46" y1="414.39" x2="305.31" y2="414.44"/><line class="cls-1" x1="305.46" y1="414.73" x2="305.46" y2="414.39"/><path class="cls-1" d="M305.46,414.83v-.1"/><line class="cls-1" x1="304.82" y1="414.73" x2="304.87" y2="414.73"/><polyline class="cls-1" points="304.92 414.98 304.97 414.98 304.97 414.93"/><line class="cls-1" x1="304.63" y1="415.03" x2="304.92" y2="414.98"/><line class="cls-1" x1="304.63" y1="414.98" x2="304.63" y2="415.03"/><line class="cls-1" x1="304.82" y1="414.93" x2="304.63" y2="414.98"/><line class="cls-1" x1="304.87" y1="414.93" x2="304.82" y2="414.93"/><line class="cls-1" x1="304.87" y1="414.88" x2="304.87" y2="414.93"/><line class="cls-1" x1="304.87" y1="414.78" x2="304.87" y2="414.88"/><line class="cls-1" x1="304.68" y1="414.83" x2="304.87" y2="414.78"/><line class="cls-1" x1="304.68" y1="414.78" x2="304.68" y2="414.83"/><line class="cls-1" x1="304.87" y1="414.73" x2="304.68" y2="414.78"/><line class="cls-1" x1="304.87" y1="414.64" x2="304.87" y2="414.73"/><line class="cls-1" x1="304.82" y1="414.64" x2="304.87" y2="414.64"/><line class="cls-1" x1="304.63" y1="414.69" x2="304.82" y2="414.64"/><line class="cls-1" x1="304.92" y1="414.54" x2="304.63" y2="414.59"/><line class="cls-1" x1="304.97" y1="414.54" x2="304.92" y2="414.54"/><polyline class="cls-1" points="305.02 414.64 305.02 414.59 304.97 414.54"/><line class="cls-1" x1="305.02" y1="414.83" x2="305.02" y2="414.64"/><polyline class="cls-1" points="304.97 414.93 305.02 414.88 305.02 414.83"/><line class="cls-1" x1="304.63" y1="414.59" x2="304.63" y2="414.69"/><line class="cls-1" x1="304.29" y1="415.03" x2="304.34" y2="415.08"/><line class="cls-1" x1="304.29" y1="415.03" x2="304.29" y2="414.78"/><line class="cls-1" x1="304.24" y1="415.08" x2="304.29" y2="415.03"/><line class="cls-1" x1="304.43" y1="414.64" x2="304.48" y2="414.64"/><line class="cls-1" x1="304.14" y1="415.17" x2="304.48" y2="415.08"/><line class="cls-1" x1="304.09" y1="415.17" x2="304.14" y2="415.17"/><path class="cls-1" d="M304.09,415.08v.09"/><line class="cls-1" x1="304.09" y1="414.88" x2="304.09" y2="415.08"/><path class="cls-1" d="M304.09,414.78v.1"/><line class="cls-1" x1="304.14" y1="414.73" x2="304.09" y2="414.78"/><line class="cls-1" x1="304.48" y1="414.64" x2="304.14" y2="414.73"/><line class="cls-1" x1="304.48" y1="415.08" x2="304.48" y2="414.64"/><polyline class="cls-1" points="304.24 414.78 304.24 414.83 304.24 414.83"/><line class="cls-1" x1="304.24" y1="414.83" x2="304.24" y2="415.03"/><polyline class="cls-1" points="304.24 415.03 304.24 415.07 304.24 415.07"/><line class="cls-1" x1="304.24" y1="415.08" x2="304.34" y2="415.08"/><line class="cls-1" x1="304.34" y1="415.08" x2="304.34" y2="414.73"/><line class="cls-1" x1="304.34" y1="414.73" x2="304.24" y2="414.78"/><line class="cls-1" x1="303.9" y1="415.17" x2="303.95" y2="415.17"/><line class="cls-1" x1="303.71" y1="414.98" x2="303.75" y2="414.98"/><line class="cls-1" x1="303.51" y1="415.12" x2="303.56" y2="415.12"/><line class="cls-1" x1="303.51" y1="414.93" x2="303.56" y2="414.98"/><line class="cls-1" x1="303.51" y1="414.88" x2="303.56" y2="414.88"/><line class="cls-1" x1="303.61" y1="415.32" x2="303.95" y2="415.22"/><line class="cls-1" x1="303.56" y1="415.32" x2="303.61" y2="415.32"/><polyline class="cls-1" points="303.51 415.22 303.51 415.27 303.56 415.32"/><polyline class="cls-1" points="303.56 415.12 303.56 415.17 303.51 415.17 303.51 415.22"/><path class="cls-1" d="M303.66,415l-.1.09"/><line class="cls-1" x1="303.71" y1="415.03" x2="303.66" y2="415.03"/><line class="cls-1" x1="303.75" y1="414.98" x2="303.71" y2="415.03"/><polyline class="cls-1" points="303.8 414.93 303.8 414.98 303.75 414.98 303.75 414.98"/><line class="cls-1" x1="303.75" y1="414.93" x2="303.8" y2="414.93"/><line class="cls-1" x1="303.56" y1="414.98" x2="303.75" y2="414.93"/><line class="cls-1" x1="303.56" y1="414.88" x2="303.56" y2="414.98"/><line class="cls-1" x1="303.85" y1="414.83" x2="303.56" y2="414.88"/><line class="cls-1" x1="303.9" y1="414.83" x2="303.85" y2="414.83"/><line class="cls-1" x1="303.95" y1="414.88" x2="303.9" y2="414.83"/><polyline class="cls-1" points="303.9 415.03 303.9 414.98 303.95 414.93 303.95 414.88"/><polyline class="cls-1" points="303.8 415.07 303.85 415.03 303.9 415.03"/><line class="cls-1" x1="303.75" y1="415.12" x2="303.8" y2="415.08"/><line class="cls-1" x1="303.71" y1="415.12" x2="303.75" y2="415.12"/><polyline class="cls-1" points="303.66 415.17 303.71 415.17 303.71 415.12"/><polyline class="cls-1" points="303.71 415.22 303.66 415.22 303.66 415.17"/><line class="cls-1" x1="303.95" y1="415.17" x2="303.71" y2="415.22"/><line class="cls-1" x1="303.95" y1="415.22" x2="303.95" y2="415.17"/><path class="cls-1" d="M303.32,415.08h-.05v0h0v.2h0"/><path class="cls-1" d="M303.22,415.32h0v-.05h.1v-.19h-.05"/><line class="cls-1" x1="302.64" y1="415.46" x2="302.68" y2="415.46"/><line class="cls-1" x1="302.64" y1="415.56" x2="302.68" y2="415.56"/><line class="cls-1" x1="302.64" y1="415.08" x2="302.68" y2="415.12"/><line class="cls-1" x1="302.64" y1="415.17" x2="302.68" y2="415.17"/><path class="cls-1" d="M302.93,415.51l.1-.09"/><line class="cls-1" x1="302.68" y1="415.56" x2="302.93" y2="415.51"/><line class="cls-1" x1="302.68" y1="415.46" x2="302.68" y2="415.56"/><line class="cls-1" x1="302.88" y1="415.42" x2="302.68" y2="415.46"/><polyline class="cls-1" points="302.88 415.37 302.88 415.42 302.88 415.42"/><line class="cls-1" x1="302.88" y1="415.17" x2="302.88" y2="415.37"/><polyline class="cls-1" points="302.88 415.12 302.88 415.17 302.88 415.17"/><line class="cls-1" x1="302.68" y1="415.17" x2="302.88" y2="415.12"/><line class="cls-1" x1="302.68" y1="415.12" x2="302.68" y2="415.17"/><line class="cls-1" x1="302.93" y1="415.03" x2="302.68" y2="415.12"/><polyline class="cls-1" points="303.02 415.07 302.98 415.03 302.93 415.03"/><polyline class="cls-1" points="303.02 415.12 303.02 415.07 303.02 415.07"/><line class="cls-1" x1="303.03" y1="415.37" x2="303.03" y2="415.12"/><line class="cls-1" x1="303.03" y1="415.42" x2="303.03" y2="415.37"/><line class="cls-1" x1="302.34" y1="415.42" x2="302.34" y2="415.46"/><line class="cls-1" x1="302.49" y1="415.12" x2="302.54" y2="415.17"/><line class="cls-1" x1="302.34" y1="415.17" x2="302.39" y2="415.17"/><line class="cls-1" x1="302.25" y1="415.66" x2="302.25" y2="415.56"/><line class="cls-1" x1="302.1" y1="415.71" x2="302.25" y2="415.66"/><line class="cls-1" x1="302.1" y1="415.61" x2="302.1" y2="415.71"/><line class="cls-1" x1="302.05" y1="415.61" x2="302.1" y2="415.61"/><line class="cls-1" x1="302.05" y1="415.51" x2="302.05" y2="415.61"/><line class="cls-1" x1="302.1" y1="415.51" x2="302.05" y2="415.51"/><line class="cls-1" x1="302.1" y1="415.27" x2="302.1" y2="415.51"/><line class="cls-1" x1="302.25" y1="415.22" x2="302.1" y2="415.27"/><line class="cls-1" x1="302.25" y1="415.46" x2="302.25" y2="415.22"/><line class="cls-1" x1="302.34" y1="415.46" x2="302.25" y2="415.46"/><line class="cls-1" x1="302.39" y1="415.42" x2="302.34" y2="415.46"/><line class="cls-1" x1="302.39" y1="415.17" x2="302.39" y2="415.42"/><line class="cls-1" x1="302.54" y1="415.17" x2="302.39" y2="415.17"/><line class="cls-1" x1="302.54" y1="415.37" x2="302.54" y2="415.17"/><polyline class="cls-1" points="302.49 415.46 302.49 415.42 302.54 415.37"/><line class="cls-1" x1="302.44" y1="415.51" x2="302.49" y2="415.46"/><line class="cls-1" x1="302.25" y1="415.56" x2="302.44" y2="415.51"/><path class="cls-1" d="M301.42,416.14h.05a.38.38,0,0,1,.15-.09.28.28,0,0,1,0-.2s-.06-.11,0-.14l-.05,0"/><path class="cls-1" d="M300.84,416.87a.38.38,0,0,0,.24.44"/><line class="cls-1" x1="307.16" y1="413.08" x2="301.23" y2="414.64"/><line class="cls-1" x1="300.84" y1="415.27" x2="300.84" y2="416.87"/><path class="cls-1" d="M301.23,414.64c-.08,0-.17.11-.25.14a.78.78,0,0,0-.14.49"/><polyline class="cls-1" points="306.19 414.98 306.23 414.98 306.23 414.93 306.23 414.93"/><line class="cls-1" x1="306.09" y1="415.03" x2="306.18" y2="414.98"/><line class="cls-1" x1="306.09" y1="415.22" x2="306.09" y2="415.03"/><line class="cls-1" x1="306.23" y1="414.73" x2="306.43" y2="414.69"/><line class="cls-1" x1="306.23" y1="414.93" x2="306.23" y2="414.73"/><line class="cls-1" x1="305.31" y1="414.39" x2="305.46" y2="414.39"/><line class="cls-1" x1="305.31" y1="414.73" x2="305.31" y2="414.39"/><polyline class="cls-1" points="305.26 414.78 305.31 414.78 305.31 414.74"/><line class="cls-1" x1="305.12" y1="414.83" x2="305.26" y2="414.78"/><line class="cls-1" x1="305.12" y1="414.93" x2="305.12" y2="414.83"/><line class="cls-1" x1="304.09" y1="415.17" x2="304.05" y2="415.12"/><line class="cls-1" x1="304.14" y1="414.73" x2="304.43" y2="414.64"/><polyline class="cls-1" points="304.05 414.78 304.09 414.74 304.14 414.74"/><path class="cls-1" d="M304.05,414.88v-.1"/><line class="cls-1" x1="304.05" y1="415.08" x2="304.05" y2="414.88"/><line class="cls-1" x1="304.05" y1="415.12" x2="304.05" y2="415.08"/><path class="cls-1" d="M303.17,415.32v-.24h.15"/><line class="cls-1" x1="302.34" y1="415.17" x2="302.49" y2="415.12"/><line class="cls-1" x1="302.34" y1="415.42" x2="302.34" y2="415.17"/><line class="cls-1" x1="302.3" y1="415.46" x2="302.34" y2="415.42"/><line class="cls-1" x1="302.25" y1="415.46" x2="302.3" y2="415.46"/><line class="cls-1" x1="302.1" y1="415.27" x2="302.25" y2="415.22"/><line class="cls-1" x1="302.1" y1="415.51" x2="302.1" y2="415.27"/><line class="cls-1" x1="302.05" y1="415.51" x2="302.1" y2="415.51"/><line class="cls-1" x1="302.05" y1="415.61" x2="302.05" y2="415.51"/><line class="cls-1" x1="302.1" y1="415.71" x2="302.1" y2="415.61"/><polyline class="cls-1" points="305.94 414.25 305.89 414.3 305.84 414.3 305.84 414.3"/><line class="cls-1" x1="305.8" y1="414.3" x2="305.75" y2="414.3"/><polyline class="cls-1" points="305.75 414.3 305.75 414.35 305.7 414.35 305.7 414.35"/><polyline class="cls-1" points="305.7 414.35 305.7 414.39 305.7 414.39"/><polyline class="cls-1" points="305.7 414.39 305.65 414.39 305.65 414.39"/><polyline class="cls-1" points="305.65 414.39 305.65 414.44 305.65 414.44"/><path class="cls-1" d="M305.65,414.44v.34h0"/><line class="cls-1" x1="305.65" y1="414.78" x2="305.7" y2="414.78"/><path class="cls-1" d="M306.77,414.54v.1l.1.09a.25.25,0,0,0,.19-.09.35.35,0,0,1,.05-.2l-.05-.05v-.09h-.19a.5.5,0,0,1-.1.14v.1"/><path class="cls-1" d="M307.59,413.52c0-.15-.11-.28-.19-.39a.27.27,0,0,1-.15-.05l0,.05"/><line class="cls-1" x1="307.59" y1="415.12" x2="307.59" y2="413.52"/><path class="cls-1" d="M307.21,415.76s.11,0,.14-.05a1.09,1.09,0,0,0,.24-.59"/><line class="cls-1" x1="301.23" y1="417.31" x2="307.21" y2="415.76"/><path class="cls-1" d="M300.84,416.87c.07.19.06.31.24.44h.15"/><line class="cls-1" x1="300.84" y1="415.27" x2="300.84" y2="416.87"/><path class="cls-1" d="M301.23,414.64c-.26.13-.31.38-.39.63"/><line class="cls-1" x1="307.21" y1="413.13" x2="301.23" y2="414.64"/><path class="cls-1" d="M301.32,416a.27.27,0,0,1,.05.15s.11.06.15,0a.38.38,0,0,0,.14-.38l-.09-.1h-.05a.49.49,0,0,1-.15.1.27.27,0,0,1-.05.19"/><line class="cls-1" x1="302.64" y1="415.08" x2="302.93" y2="415.03"/><line class="cls-1" x1="302.64" y1="415.17" x2="302.64" y2="415.08"/><polyline class="cls-1" points="302.88 415.17 302.88 415.12 302.83 415.12"/><line class="cls-1" x1="302.88" y1="415.37" x2="302.88" y2="415.17"/><polyline class="cls-1" points="302.83 415.42 302.88 415.42 302.88 415.37"/><line class="cls-1" x1="302.64" y1="415.46" x2="302.83" y2="415.42"/><line class="cls-1" x1="302.64" y1="415.56" x2="302.64" y2="415.46"/><line class="cls-1" x1="303.56" y1="415.32" x2="303.51" y2="415.27"/><line class="cls-1" x1="303.71" y1="415.22" x2="303.9" y2="415.17"/><line class="cls-1" x1="303.8" y1="414.78" x2="303.85" y2="414.78"/><line class="cls-1" x1="303.51" y1="414.88" x2="303.8" y2="414.78"/><line class="cls-1" x1="303.51" y1="414.93" x2="303.51" y2="414.88"/><polyline class="cls-1" points="303.71 414.98 303.75 414.93 303.75 414.93"/><polyline class="cls-1" points="303.66 415.03 303.71 414.98 303.71 414.98"/><line class="cls-1" x1="303.61" y1="415.03" x2="303.66" y2="415.03"/><path class="cls-1" d="M303.51,415.12l.1-.09"/><path class="cls-1" d="M303.51,415.22v-.1h0"/><line class="cls-1" x1="303.51" y1="415.27" x2="303.51" y2="415.22"/><line class="cls-1" x1="304.87" y1="414.54" x2="304.92" y2="414.54"/><line class="cls-1" x1="304.63" y1="414.59" x2="304.87" y2="414.54"/><line class="cls-1" x1="304.63" y1="414.69" x2="304.63" y2="414.59"/><line class="cls-1" x1="304.82" y1="414.73" x2="304.82" y2="414.64"/><line class="cls-1" x1="304.68" y1="414.78" x2="304.82" y2="414.73"/><line class="cls-1" x1="304.68" y1="414.83" x2="304.68" y2="414.78"/><line class="cls-1" x1="304.82" y1="414.88" x2="304.82" y2="414.83"/><polyline class="cls-1" points="304.77 414.93 304.82 414.93 304.82 414.88"/><line class="cls-1" x1="304.63" y1="414.98" x2="304.77" y2="414.93"/><line class="cls-1" x1="304.63" y1="415.03" x2="304.63" y2="414.98"/><line class="cls-1" x1="306.23" y1="414.64" x2="306.23" y2="414.44"/><line class="cls-1" x1="306.33" y1="414.15" x2="306.38" y2="414.15"/><line class="cls-1" x1="306.09" y1="414.2" x2="306.33" y2="414.15"/><line class="cls-1" x1="306.09" y1="414.44" x2="306.09" y2="414.2"/><line class="cls-1" x1="305.65" y1="414.88" x2="305.84" y2="414.83"/><line class="cls-1" x1="305.65" y1="415.22" x2="305.65" y2="414.88"/><polyline class="cls-1" points="305.7 415.32 305.65 415.27 305.65 415.22"/><line class="cls-1" x1="305.89" y1="415.08" x2="305.99" y2="415.03"/><path class="cls-1" d="M305.7,414.44v.34h.14v0h.05v-.14h0v0"/><line class="cls-1" x1="305.7" y1="414.39" x2="305.7" y2="414.44"/><polyline class="cls-1" points="305.7 414.35 305.7 414.39 305.7 414.39"/><line class="cls-1" x1="305.75" y1="414.35" x2="305.7" y2="414.35"/><polyline class="cls-1" points="305.8 414.3 305.75 414.35 305.75 414.35"/><path class="cls-1" d="M306,414.49v-.24h-.1v.05h-.14"/><path class="cls-1" d="M305.89,414.54v-.05H306"/><line class="cls-1" x1="293.6" y1="437.05" x2="293.6" y2="436.95"/><path class="cls-1" d="M304.73,409.53c0,.63-.35,1.57-1.07,1.56h0"/><path class="cls-1" d="M304.34,408.61h.05a1.13,1.13,0,0,0,.24.29,2,2,0,0,1,.1.63"/><line class="cls-1" x1="293.6" y1="436.95" x2="293.6" y2="411.53"/><path class="cls-1" d="M293.6,411.53A5.32,5.32,0,0,1,297,407"/><path class="cls-1" d="M306.62,404.09a6,6,0,0,1,.73,0"/><path class="cls-1" d="M305.07,409.63a1.45,1.45,0,0,1-1.12,1.56l-.34-.1a1.44,1.44,0,0,1,.92-2.48,1,1,0,0,1,.54,1"/><path class="cls-1" d="M293.6,411.62c.2-4.29,5.3-5.4,8.7-6.27,1.08-.27,2.36-.62,3.45-.87a4.56,4.56,0,0,1,2.38-.34c.75,1,.33,2.45.44,3.6"/><line class="cls-1" x1="308.57" y1="407.74" x2="308.57" y2="433.16"/><path class="cls-1" d="M308.57,433.16c-.07,2.53.46,6-2.19,7.43-4,2.14-12.27,2.33-12.78-3.54"/><line class="cls-1" x1="293.6" y1="437.05" x2="293.6" y2="411.62"/><line class="cls-1" x1="321.2" y1="506.65" x2="321.2" y2="505.87"/><line class="cls-1" x1="265.79" y1="505.87" x2="265.79" y2="506.65"/><line class="cls-1" x1="308.57" y1="407.1" x2="308.57" y2="107.68"/><line class="cls-1" x1="308.57" y1="505.87" x2="308.57" y2="433.79"/><line class="cls-1" x1="278.38" y1="107.68" x2="278.38" y2="505.87"/><line class="cls-1" x1="307.35" y1="413.13" x2="307.3" y2="413.08"/><line class="cls-1" x1="306.43" y1="414.15" x2="306.38" y2="414.15"/><line class="cls-1" x1="305.7" y1="415.32" x2="305.75" y2="415.32"/><line class="cls-1" x1="304.97" y1="414.54" x2="304.92" y2="414.54"/><line class="cls-1" x1="304.09" y1="415.17" x2="304.14" y2="415.17"/><line class="cls-1" x1="303.9" y1="414.83" x2="303.85" y2="414.78"/><line class="cls-1" x1="303.56" y1="415.32" x2="303.61" y2="415.32"/><line class="cls-1" x1="303.37" y1="415.08" x2="303.32" y2="415.08"/><line class="cls-1" x1="303.17" y1="415.32" x2="303.22" y2="415.32"/><line class="cls-1" x1="302.98" y1="415.03" x2="302.93" y2="415.03"/><line class="cls-1" x1="301.08" y1="417.31" x2="301.13" y2="417.31"/><line class="cls-1" x1="305.89" y1="414.49" x2="305.94" y2="414.49"/><line class="cls-1" x1="305.8" y1="414.3" x2="305.75" y2="414.3"/><line class="cls-1" x1="305.84" y1="414.3" x2="305.8" y2="414.3"/><line class="cls-1" x1="305.89" y1="414.3" x2="305.84" y2="414.3"/><line class="cls-1" x1="305.89" y1="414.3" x2="305.89" y2="414.25"/><line class="cls-1" x1="305.99" y1="414.25" x2="305.94" y2="414.25"/><line class="cls-1" x1="306.04" y1="414.25" x2="305.99" y2="414.25"/><line class="cls-1" x1="306.04" y1="414.25" x2="305.99" y2="414.25"/><line class="cls-1" x1="305.84" y1="414.73" x2="305.89" y2="414.73"/><line class="cls-1" x1="305.7" y1="414.78" x2="305.75" y2="414.78"/><line class="cls-1" x1="305.65" y1="414.78" x2="305.7" y2="414.78"/><line class="cls-1" x1="305.65" y1="414.49" x2="305.7" y2="414.49"/><line class="cls-1" x1="305.65" y1="414.44" x2="305.7" y2="414.44"/><line class="cls-1" x1="305.7" y1="414.39" x2="305.65" y2="414.39"/><path class="cls-1" d="M293.6,437.05v.09"/><path class="cls-1" d="M307.79,404h-.44"/><line class="cls-1" x1="188.3" y1="505.87" x2="188.3" y2="107.19"/><line class="cls-1" x1="278.77" y1="77.56" x2="308.13" y2="77.56"/><text class="cls-2" transform="translate(256.46 57.27)">Ø220</text><text class="cls-2" transform="translate(103.2 314.27)">3000</text></svg>